<svg xmlns="http://www.w3.org/2000/svg" xmlns:xlink="http://www.w3.org/1999/xlink" width="500" zoomAndPan="magnify" viewBox="0 0 375 374.999991" height="500" preserveAspectRatio="xMidYMid meet" version="1.0"><defs><clipPath id="857a2d90d7"><path d="M 44 53.550781 L 331.140625 53.550781 L 331.140625 321.300781 L 44 321.300781 Z M 44 53.550781 " clip-rule="nonzero"/></clipPath><clipPath id="5e13c53a83"><path d="M 140.699219 112.652344 C 132.0625 106.332031 123.035156 101.277344 114.339844 97.25 C 117.648438 82.375 122.425781 70.332031 125.164062 64.109375 C 131.058594 67.199219 141.949219 73.433594 153.527344 82.65625 C 148.699219 91.3125 144.019531 101.476562 140.699219 112.652344 Z M 121.402344 211.621094 C 138.042969 212.964844 153.011719 217.917969 164.742188 223.195312 C 163.171875 221.011719 161.574219 218.699219 159.972656 216.25 C 148.992188 199.484375 135.90625 173.363281 135.90625 144.132812 C 135.90625 137.058594 136.675781 130.171875 137.996094 123.546875 C 112.488281 103.519531 81.324219 95.84375 68.921875 93.445312 C 68.410156 109.199219 69.445312 155.3125 96.027344 188.621094 C 102.84375 197.164062 111.378906 204.894531 121.402344 211.621094 Z M 260.671875 97.15625 C 257.363281 82.324219 252.597656 70.316406 249.867188 64.109375 C 243.976562 67.199219 233.082031 73.433594 221.5 82.65625 C 226.320312 91.289062 230.984375 101.421875 234.304688 112.566406 C 242.941406 106.242188 251.972656 101.183594 260.671875 97.15625 Z M 239.125 144.132812 C 239.125 173.363281 226.039062 199.484375 215.058594 216.253906 C 213.445312 218.714844 211.839844 221.042969 210.257812 223.234375 C 221.941406 217.980469 236.832031 213.039062 253.394531 211.667969 C 263.515625 204.90625 272.128906 197.121094 279.003906 188.511719 C 305.640625 155.136719 306.640625 109.074219 306.113281 93.335938 C 293.714844 95.730469 262.53125 103.414062 237.019531 123.457031 C 238.347656 130.105469 239.125 137.027344 239.125 144.132812 Z M 270.671875 211.617188 C 275.367188 211.980469 279.929688 212.628906 284.328125 213.496094 C 285.910156 212.316406 287.449219 211.085938 288.929688 209.820312 C 321.316406 182.148438 329.234375 135.003906 331.003906 119.566406 C 327.363281 119.40625 321.964844 119.304688 315.4375 119.601562 C 315.28125 121.082031 315.105469 122.59375 314.902344 124.140625 C 312.347656 143.738281 305.445312 171.925781 287.074219 194.945312 C 282.324219 200.890625 276.835938 206.464844 270.671875 211.617188 Z M 187.511719 234.738281 C 198.105469 223.359375 228.804688 186.710938 228.804688 144.132812 C 228.804688 101.476562 198.121094 64.894531 187.519531 53.527344 C 176.925781 64.90625 146.226562 101.558594 146.226562 144.132812 C 146.226562 186.792969 176.910156 223.375 187.511719 234.738281 Z M 160.496094 263.058594 C 167.1875 290.035156 180.765625 311.683594 187.515625 321.28125 C 194.261719 311.6875 207.835938 290.050781 214.527344 263.085938 C 201.738281 257.792969 192.164062 251.769531 187.496094 248.570312 C 182.808594 251.777344 173.253906 257.78125 160.496094 263.058594 Z M 86.101562 209.816406 C 87.582031 211.082031 89.117188 212.304688 90.679688 213.472656 C 95.035156 212.613281 99.554688 211.964844 104.207031 211.601562 C 98.101562 206.484375 92.664062 200.953125 87.957031 195.050781 C 69.585938 172.03125 62.683594 143.84375 60.128906 124.246094 C 59.921875 122.664062 59.742188 121.117188 59.582031 119.597656 C 53.058594 119.304688 47.664062 119.40625 44.027344 119.566406 C 45.796875 135.003906 53.714844 182.144531 86.101562 209.816406 Z M 196.699219 242.234375 C 207.859375 249.253906 233.261719 262.871094 262.351562 262.871094 C 291.515625 262.871094 316.859375 249.269531 328.003906 242.246094 C 316.839844 235.222656 291.441406 221.609375 262.351562 221.609375 C 233.183594 221.605469 207.839844 235.207031 196.699219 242.234375 Z M 220.476562 279.394531 C 229.144531 283.476562 236.828125 286.019531 241.554688 287.390625 C 242.289062 283.714844 243.210938 278.214844 243.773438 271.601562 C 236.851562 270.4375 230.304688 268.722656 224.265625 266.714844 C 223.148438 271.09375 221.867188 275.328125 220.476562 279.394531 Z M 131.257812 271.570312 C 131.820312 278.179688 132.742188 283.683594 133.476562 287.359375 C 138.214844 285.984375 145.910156 283.433594 154.546875 279.367188 C 153.15625 275.300781 151.878906 271.066406 150.757812 266.6875 C 144.722656 268.695312 138.179688 270.410156 131.257812 271.570312 Z M 112.679688 221.578125 C 83.511719 221.578125 58.171875 235.179688 47.027344 242.203125 C 58.191406 249.226562 83.589844 262.839844 112.679688 262.839844 C 141.847656 262.839844 167.191406 249.242188 178.332031 242.214844 C 167.171875 235.195312 141.769531 221.578125 112.679688 221.578125 Z M 112.679688 221.578125 " clip-rule="nonzero"/></clipPath><linearGradient x1="34.282617" gradientTransform="matrix(0.645132, 0, 0, 0.644715, 22.361538, 25.506319)" y1="459.464586" x2="464.33039" gradientUnits="userSpaceOnUse" y2="29.415439" id="ddca01aafc"><stop stop-opacity="1" stop-color="rgb(71.398926%, 47.099304%, 90.19928%)" offset="0"/><stop stop-opacity="1" stop-color="rgb(71.398926%, 47.099304%, 90.19928%)" offset="0.125"/><stop stop-opacity="1" stop-color="rgb(71.398926%, 47.099304%, 90.19928%)" offset="0.140625"/><stop stop-opacity="1" stop-color="rgb(71.372986%, 47.103882%, 90.17334%)" offset="0.148438"/><stop stop-opacity="1" stop-color="rgb(70.88623%, 47.195435%, 89.683533%)" offset="0.152344"/><stop stop-opacity="1" stop-color="rgb(70.425415%, 47.28241%, 89.219666%)" offset="0.15625"/><stop stop-opacity="1" stop-color="rgb(69.9646%, 47.369385%, 88.754272%)" offset="0.160156"/><stop stop-opacity="1" stop-color="rgb(69.503784%, 47.45636%, 88.290405%)" offset="0.164062"/><stop stop-opacity="1" stop-color="rgb(69.041443%, 47.541809%, 87.825012%)" offset="0.167969"/><stop stop-opacity="1" stop-color="rgb(68.580627%, 47.628784%, 87.361145%)" offset="0.171875"/><stop stop-opacity="1" stop-color="rgb(68.118286%, 47.715759%, 86.895752%)" offset="0.175781"/><stop stop-opacity="1" stop-color="rgb(67.657471%, 47.802734%, 86.431885%)" offset="0.179687"/><stop stop-opacity="1" stop-color="rgb(67.195129%, 47.889709%, 85.966492%)" offset="0.183594"/><stop stop-opacity="1" stop-color="rgb(66.734314%, 47.976685%, 85.502625%)" offset="0.1875"/><stop stop-opacity="1" stop-color="rgb(66.273499%, 48.06366%, 85.037231%)" offset="0.191406"/><stop stop-opacity="1" stop-color="rgb(65.812683%, 48.150635%, 84.573364%)" offset="0.195312"/><stop stop-opacity="1" stop-color="rgb(65.350342%, 48.236084%, 84.109497%)" offset="0.199219"/><stop stop-opacity="1" stop-color="rgb(64.889526%, 48.323059%, 83.64563%)" offset="0.203125"/><stop stop-opacity="1" stop-color="rgb(64.427185%, 48.410034%, 83.180237%)" offset="0.207031"/><stop stop-opacity="1" stop-color="rgb(63.96637%, 48.497009%, 82.71637%)" offset="0.210938"/><stop stop-opacity="1" stop-color="rgb(63.505554%, 48.583984%, 82.250977%)" offset="0.214844"/><stop stop-opacity="1" stop-color="rgb(63.044739%, 48.670959%, 81.787109%)" offset="0.21875"/><stop stop-opacity="1" stop-color="rgb(62.582397%, 48.756409%, 81.321716%)" offset="0.222656"/><stop stop-opacity="1" stop-color="rgb(62.121582%, 48.843384%, 80.857849%)" offset="0.226562"/><stop stop-opacity="1" stop-color="rgb(61.659241%, 48.930359%, 80.392456%)" offset="0.230469"/><stop stop-opacity="1" stop-color="rgb(61.198425%, 49.017334%, 79.928589%)" offset="0.234375"/><stop stop-opacity="1" stop-color="rgb(60.73761%, 49.104309%, 79.463196%)" offset="0.238281"/><stop stop-opacity="1" stop-color="rgb(60.276794%, 49.191284%, 78.999329%)" offset="0.242187"/><stop stop-opacity="1" stop-color="rgb(59.814453%, 49.278259%, 78.533936%)" offset="0.246094"/><stop stop-opacity="1" stop-color="rgb(59.353638%, 49.365234%, 78.070068%)" offset="0.25"/><stop stop-opacity="1" stop-color="rgb(58.891296%, 49.450684%, 77.606201%)" offset="0.253906"/><stop stop-opacity="1" stop-color="rgb(58.430481%, 49.537659%, 77.142334%)" offset="0.257812"/><stop stop-opacity="1" stop-color="rgb(57.969666%, 49.624634%, 76.676941%)" offset="0.261719"/><stop stop-opacity="1" stop-color="rgb(57.50885%, 49.711609%, 76.213074%)" offset="0.265625"/><stop stop-opacity="1" stop-color="rgb(57.046509%, 49.798584%, 75.747681%)" offset="0.269531"/><stop stop-opacity="1" stop-color="rgb(56.585693%, 49.885559%, 75.283813%)" offset="0.273437"/><stop stop-opacity="1" stop-color="rgb(56.123352%, 49.972534%, 74.81842%)" offset="0.277344"/><stop stop-opacity="1" stop-color="rgb(55.662537%, 50.059509%, 74.354553%)" offset="0.28125"/><stop stop-opacity="1" stop-color="rgb(55.201721%, 50.144958%, 73.88916%)" offset="0.285156"/><stop stop-opacity="1" stop-color="rgb(54.740906%, 50.231934%, 73.425293%)" offset="0.289062"/><stop stop-opacity="1" stop-color="rgb(54.278564%, 50.318909%, 72.9599%)" offset="0.292969"/><stop stop-opacity="1" stop-color="rgb(53.817749%, 50.405884%, 72.496033%)" offset="0.296875"/><stop stop-opacity="1" stop-color="rgb(53.355408%, 50.492859%, 72.03064%)" offset="0.300781"/><stop stop-opacity="1" stop-color="rgb(52.894592%, 50.579834%, 71.566772%)" offset="0.304688"/><stop stop-opacity="1" stop-color="rgb(52.432251%, 50.665283%, 71.102905%)" offset="0.308594"/><stop stop-opacity="1" stop-color="rgb(51.971436%, 50.752258%, 70.639038%)" offset="0.3125"/><stop stop-opacity="1" stop-color="rgb(51.51062%, 50.839233%, 70.173645%)" offset="0.316406"/><stop stop-opacity="1" stop-color="rgb(51.049805%, 50.926208%, 69.709778%)" offset="0.320312"/><stop stop-opacity="1" stop-color="rgb(50.587463%, 51.013184%, 69.244385%)" offset="0.324219"/><stop stop-opacity="1" stop-color="rgb(50.126648%, 51.100159%, 68.780518%)" offset="0.328125"/><stop stop-opacity="1" stop-color="rgb(49.664307%, 51.187134%, 68.315125%)" offset="0.332031"/><stop stop-opacity="1" stop-color="rgb(49.203491%, 51.274109%, 67.851257%)" offset="0.335937"/><stop stop-opacity="1" stop-color="rgb(48.742676%, 51.359558%, 67.385864%)" offset="0.339844"/><stop stop-opacity="1" stop-color="rgb(48.28186%, 51.446533%, 66.921997%)" offset="0.34375"/><stop stop-opacity="1" stop-color="rgb(47.819519%, 51.533508%, 66.456604%)" offset="0.347656"/><stop stop-opacity="1" stop-color="rgb(47.358704%, 51.620483%, 65.992737%)" offset="0.351562"/><stop stop-opacity="1" stop-color="rgb(46.896362%, 51.707458%, 65.52887%)" offset="0.355469"/><stop stop-opacity="1" stop-color="rgb(46.435547%, 51.794434%, 65.065002%)" offset="0.359375"/><stop stop-opacity="1" stop-color="rgb(45.974731%, 51.881409%, 64.599609%)" offset="0.363281"/><stop stop-opacity="1" stop-color="rgb(45.513916%, 51.968384%, 64.135742%)" offset="0.367188"/><stop stop-opacity="1" stop-color="rgb(45.051575%, 52.053833%, 63.670349%)" offset="0.371094"/><stop stop-opacity="1" stop-color="rgb(44.590759%, 52.140808%, 63.206482%)" offset="0.375"/><stop stop-opacity="1" stop-color="rgb(44.128418%, 52.227783%, 62.741089%)" offset="0.378906"/><stop stop-opacity="1" stop-color="rgb(43.667603%, 52.314758%, 62.277222%)" offset="0.382812"/><stop stop-opacity="1" stop-color="rgb(43.206787%, 52.401733%, 61.811829%)" offset="0.386719"/><stop stop-opacity="1" stop-color="rgb(42.745972%, 52.488708%, 61.347961%)" offset="0.390625"/><stop stop-opacity="1" stop-color="rgb(42.28363%, 52.574158%, 60.882568%)" offset="0.394531"/><stop stop-opacity="1" stop-color="rgb(41.822815%, 52.661133%, 60.418701%)" offset="0.398437"/><stop stop-opacity="1" stop-color="rgb(41.360474%, 52.748108%, 59.953308%)" offset="0.402344"/><stop stop-opacity="1" stop-color="rgb(40.899658%, 52.835083%, 59.489441%)" offset="0.40625"/><stop stop-opacity="1" stop-color="rgb(40.438843%, 52.922058%, 59.025574%)" offset="0.410156"/><stop stop-opacity="1" stop-color="rgb(39.978027%, 53.009033%, 58.561707%)" offset="0.414062"/><stop stop-opacity="1" stop-color="rgb(39.515686%, 53.096008%, 58.096313%)" offset="0.417969"/><stop stop-opacity="1" stop-color="rgb(39.054871%, 53.182983%, 57.632446%)" offset="0.421875"/><stop stop-opacity="1" stop-color="rgb(38.592529%, 53.268433%, 57.167053%)" offset="0.425781"/><stop stop-opacity="1" stop-color="rgb(38.131714%, 53.355408%, 56.703186%)" offset="0.429687"/><stop stop-opacity="1" stop-color="rgb(37.669373%, 53.442383%, 56.237793%)" offset="0.433594"/><stop stop-opacity="1" stop-color="rgb(37.208557%, 53.529358%, 55.773926%)" offset="0.4375"/><stop stop-opacity="1" stop-color="rgb(36.747742%, 53.616333%, 55.308533%)" offset="0.441406"/><stop stop-opacity="1" stop-color="rgb(36.286926%, 53.703308%, 54.844666%)" offset="0.445312"/><stop stop-opacity="1" stop-color="rgb(35.824585%, 53.790283%, 54.379272%)" offset="0.449219"/><stop stop-opacity="1" stop-color="rgb(35.36377%, 53.877258%, 53.915405%)" offset="0.453125"/><stop stop-opacity="1" stop-color="rgb(34.901428%, 53.962708%, 53.450012%)" offset="0.457031"/><stop stop-opacity="1" stop-color="rgb(34.440613%, 54.049683%, 52.986145%)" offset="0.460938"/><stop stop-opacity="1" stop-color="rgb(33.979797%, 54.136658%, 52.522278%)" offset="0.464844"/><stop stop-opacity="1" stop-color="rgb(33.518982%, 54.223633%, 52.058411%)" offset="0.46875"/><stop stop-opacity="1" stop-color="rgb(33.056641%, 54.310608%, 51.593018%)" offset="0.472656"/><stop stop-opacity="1" stop-color="rgb(32.595825%, 54.397583%, 51.12915%)" offset="0.476562"/><stop stop-opacity="1" stop-color="rgb(32.133484%, 54.483032%, 50.663757%)" offset="0.480469"/><stop stop-opacity="1" stop-color="rgb(31.672668%, 54.570007%, 50.19989%)" offset="0.484375"/><stop stop-opacity="1" stop-color="rgb(31.211853%, 54.656982%, 49.734497%)" offset="0.488281"/><stop stop-opacity="1" stop-color="rgb(30.751038%, 54.743958%, 49.27063%)" offset="0.492187"/><stop stop-opacity="1" stop-color="rgb(30.288696%, 54.830933%, 48.805237%)" offset="0.496094"/><stop stop-opacity="1" stop-color="rgb(29.827881%, 54.917908%, 48.34137%)" offset="0.5"/><stop stop-opacity="1" stop-color="rgb(29.36554%, 55.004883%, 47.875977%)" offset="0.503906"/><stop stop-opacity="1" stop-color="rgb(28.904724%, 55.091858%, 47.412109%)" offset="0.507812"/><stop stop-opacity="1" stop-color="rgb(28.443909%, 55.177307%, 46.948242%)" offset="0.511719"/><stop stop-opacity="1" stop-color="rgb(27.983093%, 55.264282%, 46.484375%)" offset="0.515625"/><stop stop-opacity="1" stop-color="rgb(27.894592%, 55.177307%, 46.453857%)" offset="0.517184"/><stop stop-opacity="1" stop-color="rgb(27.806091%, 55.090332%, 46.42334%)" offset="0.523438"/><stop stop-opacity="1" stop-color="rgb(27.810669%, 54.960632%, 46.499634%)" offset="0.53125"/><stop stop-opacity="1" stop-color="rgb(27.819824%, 54.699707%, 46.653748%)" offset="0.539062"/><stop stop-opacity="1" stop-color="rgb(27.827454%, 54.440308%, 46.807861%)" offset="0.546875"/><stop stop-opacity="1" stop-color="rgb(27.836609%, 54.180908%, 46.961975%)" offset="0.554688"/><stop stop-opacity="1" stop-color="rgb(27.845764%, 53.919983%, 47.116089%)" offset="0.5625"/><stop stop-opacity="1" stop-color="rgb(27.854919%, 53.660583%, 47.270203%)" offset="0.570312"/><stop stop-opacity="1" stop-color="rgb(27.864075%, 53.399658%, 47.424316%)" offset="0.578125"/><stop stop-opacity="1" stop-color="rgb(27.871704%, 53.140259%, 47.579956%)" offset="0.585937"/><stop stop-opacity="1" stop-color="rgb(27.880859%, 52.879333%, 47.73407%)" offset="0.59375"/><stop stop-opacity="1" stop-color="rgb(27.890015%, 52.619934%, 47.888184%)" offset="0.601562"/><stop stop-opacity="1" stop-color="rgb(27.89917%, 52.359009%, 48.042297%)" offset="0.609375"/><stop stop-opacity="1" stop-color="rgb(27.906799%, 52.099609%, 48.196411%)" offset="0.617188"/><stop stop-opacity="1" stop-color="rgb(27.915955%, 51.84021%, 48.350525%)" offset="0.625"/><stop stop-opacity="1" stop-color="rgb(27.92511%, 51.579285%, 48.504639%)" offset="0.632812"/><stop stop-opacity="1" stop-color="rgb(27.934265%, 51.319885%, 48.658752%)" offset="0.640625"/><stop stop-opacity="1" stop-color="rgb(27.94342%, 51.05896%, 48.812866%)" offset="0.648438"/><stop stop-opacity="1" stop-color="rgb(27.95105%, 50.799561%, 48.968506%)" offset="0.65625"/><stop stop-opacity="1" stop-color="rgb(27.960205%, 50.538635%, 49.12262%)" offset="0.664062"/><stop stop-opacity="1" stop-color="rgb(27.96936%, 50.279236%, 49.276733%)" offset="0.671875"/><stop stop-opacity="1" stop-color="rgb(27.978516%, 50.018311%, 49.430847%)" offset="0.679687"/><stop stop-opacity="1" stop-color="rgb(27.986145%, 49.758911%, 49.584961%)" offset="0.6875"/><stop stop-opacity="1" stop-color="rgb(27.9953%, 49.499512%, 49.739075%)" offset="0.695312"/><stop stop-opacity="1" stop-color="rgb(28.004456%, 49.238586%, 49.893188%)" offset="0.703125"/><stop stop-opacity="1" stop-color="rgb(28.013611%, 48.979187%, 50.047302%)" offset="0.710938"/><stop stop-opacity="1" stop-color="rgb(28.022766%, 48.718262%, 50.201416%)" offset="0.71875"/><stop stop-opacity="1" stop-color="rgb(28.030396%, 48.458862%, 50.357056%)" offset="0.726562"/><stop stop-opacity="1" stop-color="rgb(28.039551%, 48.197937%, 50.511169%)" offset="0.734375"/><stop stop-opacity="1" stop-color="rgb(28.048706%, 47.938538%, 50.665283%)" offset="0.742187"/><stop stop-opacity="1" stop-color="rgb(28.057861%, 47.677612%, 50.819397%)" offset="0.75"/><stop stop-opacity="1" stop-color="rgb(28.065491%, 47.418213%, 50.973511%)" offset="0.757812"/><stop stop-opacity="1" stop-color="rgb(28.074646%, 47.158813%, 51.127625%)" offset="0.765625"/><stop stop-opacity="1" stop-color="rgb(28.083801%, 46.897888%, 51.281738%)" offset="0.773438"/><stop stop-opacity="1" stop-color="rgb(28.092957%, 46.638489%, 51.435852%)" offset="0.78125"/><stop stop-opacity="1" stop-color="rgb(28.102112%, 46.377563%, 51.589966%)" offset="0.789062"/><stop stop-opacity="1" stop-color="rgb(28.109741%, 46.118164%, 51.745605%)" offset="0.796875"/><stop stop-opacity="1" stop-color="rgb(28.118896%, 45.857239%, 51.899719%)" offset="0.804688"/><stop stop-opacity="1" stop-color="rgb(28.128052%, 45.597839%, 52.053833%)" offset="0.8125"/><stop stop-opacity="1" stop-color="rgb(28.137207%, 45.336914%, 52.207947%)" offset="0.820312"/><stop stop-opacity="1" stop-color="rgb(28.144836%, 45.077515%, 52.362061%)" offset="0.828125"/><stop stop-opacity="1" stop-color="rgb(28.153992%, 44.818115%, 52.516174%)" offset="0.835937"/><stop stop-opacity="1" stop-color="rgb(28.163147%, 44.55719%, 52.670288%)" offset="0.84375"/><stop stop-opacity="1" stop-color="rgb(28.172302%, 44.297791%, 52.824402%)" offset="0.851562"/><stop stop-opacity="1" stop-color="rgb(28.181458%, 44.036865%, 52.978516%)" offset="0.859375"/><stop stop-opacity="1" stop-color="rgb(28.189087%, 43.777466%, 53.134155%)" offset="0.867188"/><stop stop-opacity="1" stop-color="rgb(28.196716%, 43.572998%, 53.2547%)" offset="0.875"/><stop stop-opacity="1" stop-color="rgb(28.199768%, 43.499756%, 53.29895%)" offset="1"/></linearGradient></defs><rect x="-37.5" width="450" fill="#ffffff" y="-37.499999" height="449.999989" fill-opacity="1"/><rect x="-37.5" width="450" fill="#ffffff" y="-37.499999" height="449.999989" fill-opacity="1"/><rect x="-37.5" width="450" fill="#ffffff" y="-37.499999" height="449.999989" fill-opacity="1"/><rect x="-37.5" width="450" fill="#000630" y="-37.499999" height="449.999989" fill-opacity="1"/><path fill="#ffd9aa" d="M 167.027344 1.570312 L 168.917969 1.371094 L 170.65625 17.859375 L 168.761719 18.058594 Z M 167.027344 1.570312 " fill-opacity="1" fill-rule="nonzero"/><path fill="#ffd9aa" d="M 147.71875 4.789062 L 149.578125 4.394531 L 153.027344 20.609375 L 151.164062 21.003906 Z M 147.71875 4.789062 " fill-opacity="1" fill-rule="nonzero"/><path fill="#ffd9aa" d="M 128.828125 9.933594 L 130.636719 9.34375 L 135.761719 25.113281 L 133.953125 25.699219 Z M 128.828125 9.933594 " fill-opacity="1" fill-rule="nonzero"/><path fill="#ffd9aa" d="M 110.574219 16.996094 L 112.3125 16.222656 L 119.054688 31.367188 L 117.316406 32.140625 Z M 110.574219 16.996094 " fill-opacity="1" fill-rule="nonzero"/><path fill="#ffd9aa" d="M 76.761719 36.742188 L 78.300781 35.625 L 88.046875 49.039062 L 86.507812 50.15625 Z M 76.761719 36.742188 " fill-opacity="1" fill-rule="nonzero"/><path fill="#ffd9aa" d="M 61.695312 49.140625 L 63.109375 47.867188 L 74.203125 60.1875 L 72.789062 61.460938 Z M 61.695312 49.140625 " fill-opacity="1" fill-rule="nonzero"/><path fill="#ffd9aa" d="M 47.875 63.035156 L 49.148438 61.621094 L 61.46875 72.714844 L 60.195312 74.128906 Z M 47.875 63.035156 " fill-opacity="1" fill-rule="nonzero"/><path fill="#ffd9aa" d="M 35.644531 78.296875 L 36.761719 76.757812 L 50.175781 86.503906 L 49.054688 88.042969 Z M 35.644531 78.296875 " fill-opacity="1" fill-rule="nonzero"/><path fill="#ffd9aa" d="M 16.242188 112.253906 L 17.015625 110.515625 L 32.164062 117.257812 L 31.390625 118.996094 Z M 16.242188 112.253906 " fill-opacity="1" fill-rule="nonzero"/><path fill="#ffd9aa" d="M 9.316406 130.574219 L 9.90625 128.765625 L 25.675781 133.890625 L 25.085938 135.699219 Z M 9.316406 130.574219 " fill-opacity="1" fill-rule="nonzero"/><path fill="#ffd9aa" d="M 4.34375 149.507812 L 4.738281 147.648438 L 20.957031 151.09375 L 20.558594 152.957031 Z M 4.34375 149.507812 " fill-opacity="1" fill-rule="nonzero"/><path fill="#ffd9aa" d="M 1.386719 168.84375 L 1.585938 166.953125 L 18.074219 168.683594 L 17.875 170.578125 Z M 1.386719 168.84375 " fill-opacity="1" fill-rule="nonzero"/><path fill="#ffd9aa" d="M 1.367188 206.074219 L 17.855469 204.335938 L 18.054688 206.230469 L 1.566406 207.964844 Z M 1.367188 206.074219 " fill-opacity="1" fill-rule="nonzero"/><path fill="#ffd9aa" d="M 4.394531 225.421875 L 20.613281 221.972656 L 21.007812 223.835938 L 4.792969 227.28125 Z M 4.394531 225.421875 " fill-opacity="1" fill-rule="nonzero"/><path fill="#ffd9aa" d="M 9.347656 244.363281 L 25.117188 239.238281 L 25.703125 241.050781 L 9.933594 246.171875 Z M 9.347656 244.363281 " fill-opacity="1" fill-rule="nonzero"/><path fill="#ffd9aa" d="M 16.226562 262.691406 L 31.371094 255.945312 L 32.148438 257.683594 L 17 264.425781 Z M 16.226562 262.691406 " fill-opacity="1" fill-rule="nonzero"/><path fill="#ffd9aa" d="M 35.609375 296.628906 L 49.023438 286.882812 L 50.140625 288.421875 L 36.730469 298.167969 Z M 35.609375 296.628906 " fill-opacity="1" fill-rule="nonzero"/><path fill="#ffd9aa" d="M 47.875 311.890625 L 60.195312 300.796875 L 61.46875 302.210938 L 49.148438 313.304688 Z M 47.875 311.890625 " fill-opacity="1" fill-rule="nonzero"/><path fill="#ffd9aa" d="M 61.652344 325.832031 L 72.746094 313.511719 L 74.160156 314.785156 L 63.066406 327.105469 Z M 61.652344 325.832031 " fill-opacity="1" fill-rule="nonzero"/><path fill="#ffd9aa" d="M 76.777344 338.226562 L 86.523438 324.8125 L 88.0625 325.933594 L 78.320312 339.34375 Z M 76.777344 338.226562 " fill-opacity="1" fill-rule="nonzero"/><path fill="#ffd9aa" d="M 110.527344 357.96875 L 117.269531 342.824219 L 119.007812 343.597656 L 112.265625 358.742188 Z M 110.527344 357.96875 " fill-opacity="1" fill-rule="nonzero"/><path fill="#ffd9aa" d="M 128.8125 365.0625 L 133.9375 349.292969 L 135.746094 349.882812 L 130.621094 365.648438 Z M 128.8125 365.0625 " fill-opacity="1" fill-rule="nonzero"/><path fill="#ffd9aa" d="M 147.664062 370.25 L 151.109375 354.035156 L 152.96875 354.429688 L 149.523438 370.644531 Z M 147.664062 370.25 " fill-opacity="1" fill-rule="nonzero"/><path fill="#ffd9aa" d="M 166.984375 373.394531 L 168.714844 356.90625 L 170.609375 357.105469 L 168.875 373.59375 Z M 166.984375 373.394531 " fill-opacity="1" fill-rule="nonzero"/><path fill="#ffd9aa" d="M 204.324219 357.070312 L 206.214844 356.871094 L 207.949219 373.359375 L 206.058594 373.558594 Z M 204.324219 357.070312 " fill-opacity="1" fill-rule="nonzero"/><path fill="#ffd9aa" d="M 221.976562 354.386719 L 223.835938 353.992188 L 227.285156 370.207031 L 225.421875 370.605469 Z M 221.976562 354.386719 " fill-opacity="1" fill-rule="nonzero"/><path fill="#ffd9aa" d="M 239.242188 349.886719 L 241.054688 349.296875 L 246.175781 365.066406 L 244.367188 365.652344 Z M 239.242188 349.886719 " fill-opacity="1" fill-rule="nonzero"/><path fill="#ffd9aa" d="M 255.917969 343.574219 L 257.65625 342.796875 L 264.398438 357.945312 L 262.660156 358.71875 Z M 255.917969 343.574219 " fill-opacity="1" fill-rule="nonzero"/><path fill="#ffd9aa" d="M 286.871094 325.910156 L 288.410156 324.789062 L 298.152344 338.203125 L 296.613281 339.320312 Z M 286.871094 325.910156 " fill-opacity="1" fill-rule="nonzero"/><path fill="#ffd9aa" d="M 300.800781 314.796875 L 302.214844 313.523438 L 313.308594 325.84375 L 311.894531 327.117188 Z M 300.800781 314.796875 " fill-opacity="1" fill-rule="nonzero"/><path fill="#ffd9aa" d="M 313.488281 302.226562 L 314.761719 300.8125 L 327.082031 311.90625 L 325.808594 313.320312 Z M 313.488281 302.226562 " fill-opacity="1" fill-rule="nonzero"/><path fill="#ffd9aa" d="M 324.78125 288.429688 L 325.902344 286.890625 L 339.3125 296.636719 L 338.195312 298.175781 Z M 324.78125 288.429688 " fill-opacity="1" fill-rule="nonzero"/><path fill="#ffd9aa" d="M 342.777344 257.691406 L 343.550781 255.953125 L 358.695312 262.695312 L 357.921875 264.433594 Z M 342.777344 257.691406 " fill-opacity="1" fill-rule="nonzero"/><path fill="#ffd9aa" d="M 349.265625 241 L 349.855469 239.191406 L 365.621094 244.3125 L 365.035156 246.125 Z M 349.265625 241 " fill-opacity="1" fill-rule="nonzero"/><path fill="#ffd9aa" d="M 353.980469 223.867188 L 354.375 222.003906 L 370.59375 225.453125 L 370.199219 227.3125 Z M 353.980469 223.867188 " fill-opacity="1" fill-rule="nonzero"/><path fill="#ffd9aa" d="M 356.84375 206.242188 L 357.042969 204.351562 L 373.53125 206.082031 L 373.332031 207.972656 Z M 356.84375 206.242188 " fill-opacity="1" fill-rule="nonzero"/><path fill="#ffd9aa" d="M 356.863281 168.777344 L 373.351562 167.039062 L 373.550781 168.933594 L 357.0625 170.667969 Z M 356.863281 168.777344 " fill-opacity="1" fill-rule="nonzero"/><path fill="#ffd9aa" d="M 353.996094 151.164062 L 370.210938 147.714844 L 370.605469 149.578125 L 354.390625 153.023438 Z M 353.996094 151.164062 " fill-opacity="1" fill-rule="nonzero"/><path fill="#ffd9aa" d="M 349.300781 133.949219 L 365.070312 128.824219 L 365.65625 130.636719 L 349.890625 135.757812 Z M 349.300781 133.949219 " fill-opacity="1" fill-rule="nonzero"/><path fill="#ffd9aa" d="M 342.796875 117.347656 L 357.941406 110.601562 L 358.714844 112.339844 L 343.570312 119.082031 Z M 342.796875 117.347656 " fill-opacity="1" fill-rule="nonzero"/><path fill="#ffd9aa" d="M 324.773438 86.519531 L 338.1875 76.773438 L 339.304688 78.3125 L 325.894531 88.058594 Z M 324.773438 86.519531 " fill-opacity="1" fill-rule="nonzero"/><path fill="#ffd9aa" d="M 313.53125 72.777344 L 325.851562 61.683594 L 327.125 63.097656 L 314.804688 74.191406 Z M 313.53125 72.777344 " fill-opacity="1" fill-rule="nonzero"/><path fill="#ffd9aa" d="M 300.824219 60.238281 L 311.917969 47.917969 L 313.332031 49.191406 L 302.238281 61.511719 Z M 300.824219 60.238281 " fill-opacity="1" fill-rule="nonzero"/><path fill="#ffd9aa" d="M 286.90625 49.085938 L 296.652344 35.675781 L 298.191406 36.792969 L 288.445312 50.203125 Z M 286.90625 49.085938 " fill-opacity="1" fill-rule="nonzero"/><path fill="#ffd9aa" d="M 255.949219 31.410156 L 262.691406 16.265625 L 264.429688 17.039062 L 257.6875 32.1875 Z M 255.949219 31.410156 " fill-opacity="1" fill-rule="nonzero"/><path fill="#ffd9aa" d="M 239.238281 25.101562 L 244.359375 9.335938 L 246.171875 9.921875 L 241.046875 25.691406 Z M 239.238281 25.101562 " fill-opacity="1" fill-rule="nonzero"/><path fill="#ffd9aa" d="M 222.011719 20.609375 L 225.460938 4.394531 L 227.320312 4.789062 L 223.875 21.007812 Z M 222.011719 20.609375 " fill-opacity="1" fill-rule="nonzero"/><path fill="#ffd9aa" d="M 204.375 17.917969 L 206.105469 1.429688 L 207.996094 1.628906 L 206.265625 18.117188 Z M 204.375 17.917969 " fill-opacity="1" fill-rule="nonzero"/><path fill="#ffd9aa" d="M 183.730469 0 L 191.269531 0 L 191.269531 23.847656 L 183.730469 23.847656 Z M 183.730469 0 " fill-opacity="1" fill-rule="nonzero"/><path fill="#ffd9aa" d="M 90.480469 26.984375 L 97.011719 23.214844 L 108.9375 43.867188 L 102.402344 47.640625 Z M 90.480469 26.984375 " fill-opacity="1" fill-rule="nonzero"/><path fill="#ffd9aa" d="M 23.230469 97.011719 L 27.003906 90.476562 L 47.65625 102.402344 L 43.886719 108.933594 Z M 23.230469 97.011719 " fill-opacity="1" fill-rule="nonzero"/><path fill="#ffd9aa" d="M 0 183.730469 L 23.847656 183.730469 L 23.847656 191.269531 L 0 191.269531 Z M 0 183.730469 " fill-opacity="1" fill-rule="nonzero"/><path fill="#ffd9aa" d="M 23.230469 277.976562 L 43.882812 266.050781 L 47.65625 272.582031 L 27 284.507812 Z M 23.230469 277.976562 " fill-opacity="1" fill-rule="nonzero"/><path fill="#ffd9aa" d="M 90.496094 347.984375 L 102.421875 327.328125 L 108.953125 331.101562 L 97.027344 351.753906 Z M 90.496094 347.984375 " fill-opacity="1" fill-rule="nonzero"/><path fill="#ffd9aa" d="M 183.730469 351.152344 L 191.269531 351.152344 L 191.269531 375 L 183.730469 375 Z M 183.730469 351.152344 " fill-opacity="1" fill-rule="nonzero"/><path fill="#ffd9aa" d="M 266.066406 331.101562 L 272.597656 327.332031 L 284.523438 347.984375 L 277.992188 351.757812 Z M 266.066406 331.101562 " fill-opacity="1" fill-rule="nonzero"/><path fill="#ffd9aa" d="M 327.347656 272.5625 L 331.117188 266.03125 L 351.769531 277.957031 L 348 284.488281 Z M 327.347656 272.5625 " fill-opacity="1" fill-rule="nonzero"/><path fill="#ffd9aa" d="M 351.152344 183.730469 L 375 183.730469 L 375 191.269531 L 351.152344 191.269531 Z M 351.152344 183.730469 " fill-opacity="1" fill-rule="nonzero"/><path fill="#ffd9aa" d="M 327.347656 102.386719 L 348 90.464844 L 351.773438 96.996094 L 331.117188 108.917969 Z M 327.347656 102.386719 " fill-opacity="1" fill-rule="nonzero"/><path fill="#ffd9aa" d="M 266.046875 43.867188 L 277.972656 23.210938 L 284.503906 26.984375 L 272.578125 47.636719 Z M 266.046875 43.867188 " fill-opacity="1" fill-rule="nonzero"/><g clip-path="url(#857a2d90d7)"><g clip-path="url(#5e13c53a83)"><path fill="url(#ddca01aafc)" d="M 44.027344 53.550781 L 44.027344 321.28125 L 331.003906 321.28125 L 331.003906 53.550781 Z M 44.027344 53.550781 " fill-rule="nonzero"/></g></g></svg>